<?xml version="1.0" encoding="UTF-8" standalone="no"?>
<svg
   xmlns:dc="http://purl.org/dc/elements/1.1/"
   xmlns:cc="http://creativecommons.org/ns#"
   xmlns:rdf="http://www.w3.org/1999/02/22-rdf-syntax-ns#"
   xmlns:svg="http://www.w3.org/2000/svg"
   xmlns="http://www.w3.org/2000/svg"
   version="1.1"
   id="svg2"
   viewBox="0 0 512 512">
  <metadata
     id="metadata10">
    <rdf:RDF>
      <cc:Work
         rdf:about="">
        <dc:format>image/svg+xml</dc:format>
        <dc:type
           rdf:resource="http://purl.org/dc/dcmitype/StillImage" />
        <dc:title></dc:title>
      </cc:Work>
    </rdf:RDF>
  </metadata>
  <defs
     id="defs8" />
  <path
     id="path4142"
     d="M 48 32 C 21.5 32 0 53.5 0 80 L 0 432 C 0 458.5 21.5 480 48 480 L 464 480 C 490.5 480 512 458.5 512 432 L 512 80 C 512 53.5 490.5 32 464 32 L 48 32 z M 54 80 L 458 80 C 461.3 80 464 82.7 464 86 L 464 426 C 464 429.3 461.3 432 458 432 L 54 432 C 50.7 432 48 429.3 48 426 L 48 86 C 48 82.7 50.7 80 54 80 z " />
  <path
     id="path4140"
     d="M 72,98 C 68.7,98 66,100.7 66,104 L 66,179 C 66,182.3 68.7,185 72,185 73.806297,185 75.428866,184.18755 76.53125,182.91406 L 151.531,107.914 C 152.44261,106.8609 153,105.4937 153,104 153,100.7 150.3,98 147,98 Z" />
  <path
     d="M 72,414 C 68.7,414 66,411.3 66,408 L 66,333 C 66,329.7 68.7,327 72,327 73.806297,327 75.428866,327.81245 76.53125,329.08594 L 151.531,404.086 C 152.44261,405.1391 153,406.5063 153,408 153,411.3 150.3,414 147,414 Z"
     id="path4160" />
  <path
     d="M 440,98 C 443.3,98 446,100.7 446,104 L 446,179 C 446,182.3 443.3,185 440,185 438.1937,185 436.57113,184.18755 435.46875,182.91406 L 360.469,107.914 C 359.55739,106.8609 359,105.4937 359,104 359,100.7 361.7,98 365,98 Z"
     id="path4162" />
  <path
     id="path4166"
     d="M 440,414 C 443.3,414 446,411.3 446,408 L 446,333 C 446,329.7 443.3,327 440,327 438.1937,327 436.57113,327.81245 435.46875,329.08594 L 360.469,404.086 C 359.55739,405.1391 359,406.5063 359,408 359,411.3 361.7,414 365,414 Z" />
</svg>
