/* XPM */
const static char * icon_svg_xpm[] = {
"48 48 58 1",
" 	c None",
".	c #000083",
"+	c #000084",
"@	c #000081",
"#	c #000080",
"$	c #0000A7",
"%	c #0000CB",
"&	c #0000D9",
"*	c #0000DD",
"=	c #0000CA",
"-	c #000096",
";	c #0000EB",
">	c #0000FF",
",	c #0000F9",
"'	c #000094",
")	c #0000EA",
"!	c #000082",
"~	c #0000D8",
"{	c #0000DB",
"]	c #840000",
"^	c #810000",
"/	c #800000",
"(	c #2B2BA9",
"_	c #6F6F29",
":	c #7F7F03",
"<	c #808000",
"[	c #818100",
"}	c #848400",
"|	c #BA0000",
"1	c #DA0000",
"2	c #DD0000",
"3	c #03007F",
"4	c #2C2CA8",
"5	c #808002",
"6	c #BABA00",
"7	c #DADA00",
"8	c #DDDD00",
"9	c #FF0000",
"0	c #170078",
"a	c #6F6F28",
"b	c #FFFF00",
"c	c #D90000",
"d	c #570055",
"e	c #0400A4",
"f	c #D9D900",
"g	c #DB0000",
"h	c #B50025",
"i	c #020080",
"j	c #DBDB00",
"k	c #3C0064",
"l	c #060092",
"m	c #E8000C",
"n	c #1A0076",
"o	c #3D0064",
"p	c #0300A5",
"q	c #550057",
"r	c #B90000",
"s	c #B9B900",
"                                                ",
"                                                ",
"                                                ",
"           .+@####################@+.           ",
"         .@$%&********************&=$@.         ",
"        .-;>>>>>>>>>>>>>>>>>>>>>>>>>>;-.        ",
"       .-,>>>>>>>>>>>>>>>>>>>>>>>>>>>>,'.       ",
"       @;>>>>>>>>>>>>>>>>>>>>>>>>>>>>>>)@       ",
"      !$>>>>>>>>>>>>>>>>>>>>>>>>>>>>>>>>$!      ",
"      +%>>>>>>>>>>>>>>>>>>>>>>>>>>>>>>>>=.      ",
"      @~>>>>>>>>>>>>>>>>>>>>>>>>>>>>>>>>~@      ",
"      #{>>>>>>>>>>>>>>>>>>>>>>>>>>>>>>>>{#      ",
"      #{>>>>>>>>>>>>>>>>>>>>>>>>>>>>>>>>{#      ",
"      #{>>>>>>>>>>>>>>>>>>>>>>>>>>>>>>>>{#      ",
"      #{>>>>>>>>>>>>>>>>>>>>>>>>>>>>>>>>{#      ",
"      #{>>>>>>>>>>>>>>>>>>>>>>>>>>>>>>>>{#      ",
"      #{>>>>>>>>>>>>>>>>>>>>>>>>>>>>>>>>{#      ",
"      #{>>>>>>>>>>>>>>>>>>>>>>>>>>>>>>>>{#      ",
"      #{>>>>>>>>>>>>>>>>>>>>>>>>>>>>>>>>{#      ",
"      #{>>>>>>>>>>>>>>>>>>>>>>>>>>>>>>>>{#      ",
"      #{>>>>>>>>>>>>>>>>>>>>>>>>>>>>>>>>{#      ",
"      #{>>>>>>>>>>>>>>>>>>>>>>>>>>>>>>>>{#      ",
"      #{>>>>>>>>>>>>>>>>>>>>>>>>>>>>>>>>{#      ",
"      #{>>>>>>>>>>>>>>>>>>>>>>>>>>>>>>>>{#      ",
"      #{>>>>>>>>>>>>>>>>>>>>>>>>>>>>>>>>{#      ",
"      #{>>>>>>>>>>>>>>>>>>>>>>>>>>>>>>>>{#      ",
"      #{>>>>>>>>>>>>>>>>>>>>>>>>>>>>>>>>{#      ",
"      #{>>>>>>>>>>>>>>>>>>>>>>>>>>>>>>>>{#      ",
"      #{>>>>>>>>>>>>>>>>>>>>>>>>>>>>>>>>{#      ",
"      #{>>>>>>>>>>>>>>>>>>>>>>>>>>>>>>>>{#      ",
"  ]^//#{>>>>>>>>>>>>>>>>>>>>>>>>>>(_:<<<<<<<[}  ",
" ^|1223~>>>>>>>>>>>>>>>>>>>>>>>>>4567888888876[ ",
"]|99990=>>>>>>>>>>>>>>>>>>>>>>>>>a6bbbbbbbbbbb6}",
"^c9999de>>>>>>>>>>>>>>>>>>>>>>>>>:fbbbbbbbbbbbf[",
"/g9999hi;>>>>>>>>>>>>>>>>>>>>>>>><jbbbbbbbbbbbj<",
"/g99999kl,>>>>>>>>>>>>>>>>>>>>>>><jbbbbbbbbbbbj<",
"/g99999mnl)>>>>>>>>>>>>>>>>>>>>>><jbbbbbbbbbbbj<",
"/g999999moip=&*******************<jbbbbbbbbbbbj<",
"/g99999999hq03###################<jbbbbbbbbbbbj<",
"/g99999999999g/                  <jbbbbbbbbbbbj<",
"/g99999999999g/                  <jbbbbbbbbbbbj<",
"^c99999999999c^                  [fbbbbbbbbbbbf[",
"]|99999999999r]                  }6bbbbbbbbbbbs}",
" ^r122222221r^                    [s788888887s[ ",
"  ]^///////^]                      }[<<<<<<<[}  ",
"                                                ",
"                                                ",
"                                                "};
